<?xml version="1.0" standalone="no"?>
<!DOCTYPE svg PUBLIC "-//W3C//DTD SVG 20010904//EN"
 "http://www.w3.org/TR/2001/REC-SVG-20010904/DTD/svg10.dtd">
<svg version="1.0" xmlns="http://www.w3.org/2000/svg"
 width="115.000000pt" height="115.000000pt" viewBox="0 0 115.000000 115.000000"
 preserveAspectRatio="xMidYMid meet">
<metadata>
Created by potrace 1.14, written by Peter Selinger 2001-2017
</metadata>
<g transform="translate(0.000000,115.000000) scale(0.100000,-0.100000)"
fill="#000000" stroke="none">
<path d="M490 966 c-253 -54 -391 -327 -282 -560 65 -140 192 -224 345 -231
165 -7 311 81 383 233 39 81 45 204 15 293 -65 194 -263 307 -461 265z m76
-155 c45 -20 88 -70 99 -112 5 -19 15 -28 34 -32 54 -11 109 -72 125 -140 6
-26 5 -27 -14 -17 -12 6 -40 10 -63 8 -64 -6 -247 -51 -247 -61 0 -20 32 -67
58 -86 88 -62 222 -10 239 92 3 20 10 37 15 37 36 0 -6 -106 -57 -146 -40 -30
-117 -41 -168 -25 -42 14 -90 65 -108 114 -9 26 -20 37 -40 41 -42 8 -95 61
-113 111 -9 29 -11 45 -4 45 7 0 7 4 0 13 -14 17 9 82 43 117 58 61 127 74
201 41z"/>
<path d="M434 790 c-21 -9 -48 -27 -58 -39 -17 -19 -48 -111 -40 -120 8 -9 92
0 166 18 73 19 116 28 140 30 10 1 -1 30 -24 64 -39 56 -120 77 -184 47z"/>
</g>
</svg>
